<svg viewBox="0 0 1024 1024" xmlns="http://www.w3.org/2000/svg" width="200" height="200">
  <style>
    path { fill: #2563EB; }
    @media (prefers-color-scheme: dark) { path { fill: #ffffff; } }
  </style>
  <path d="M832 64c35.328 0 65.536 12.48 90.496 37.504 24.96 24.96 37.504 55.168 37.504 90.496v682.624c0 35.392-12.48 65.536-37.504 90.56-24.96 24.96-55.168 37.44-90.496 37.44H277.312c-31.232 0-58.752-10.048-82.56-30.208A124.288 124.288 0 0 1 151.04 896h51.584c26.048 0 48.384-9.088 67.072-27.328 18.624-18.176 28.288-40.32 28.864-66.432 0.64-26.048-7.936-48.64-25.728-67.712a92.736 92.736 0 0 0-65.728-30.464L149.312 704V629.376h53.376c25.6 0 47.68-8.896 66.24-26.624 18.56-17.664 28.416-39.296 29.632-64.896 0-25.6-8.704-52.224-26.432-70.784a92.8 92.8 0 0 0-64.96-29.632l-57.856-0.128V362.688h53.376c25.6 0 47.68-8.832 66.24-26.496 18.56-17.664 28.416-39.36 29.632-64.96 0-25.6-8.704-52.224-26.432-70.784a92.48 92.48 0 0 0-64.96-29.632l-56.064-0.128c5.248-30.72 19.776-56.192 43.584-76.352A124.16 124.16 0 0 1 277.312 64H832zM202.688 768c21.312 0 32 10.624 32 32 0 21.376-10.688 32-32 32H96c-21.312 0-32-10.624-32-32 0-21.376 10.688-32 32-32h106.688z m605.824-445.888c-30.144-30.144-60.352-30.144-90.496 0l-306.56 306.688a41.6 41.6 0 0 0-12.16 24.448l-8.64 63.808c-2.56 18.816 5.568 26.816 24.32 23.936l62.848-9.472a41.472 41.472 0 0 0 23.872-11.968l306.816-306.88c30.144-30.144 30.208-60.352 0-90.56z m-605.824 179.2c21.312 0 32 10.688 32 32 0 21.312-10.688 32-32 32H96c-21.312 0-32-10.688-32-32 0-21.312 10.688-32 32-32h106.688z m0-266.688c21.312 0 32 10.688 32 32 0 21.376-10.688 32-32 32H96c-21.312 0-32-10.624-32-32 0-21.312 10.688-32 32-32h106.688z"/>
</svg>
