<svg width="1413" height="2053" viewBox="0 0 1413 2053" fill="none" xmlns="http://www.w3.org/2000/svg">
<path d="M302.109 692.951V583.451L987.109 83.451V193.451L302.109 692.951Z" fill="black"/>
<path d="M1185.61 274.451V163.951L486.609 667.951V778.451L1185.61 274.451Z" fill="black"/>
<path d="M302.109 692.951V583.451L987.109 83.451V193.451L302.109 692.951Z" stroke="black" stroke-width="5"/>
<path d="M1185.61 274.451V163.951L486.609 667.951V778.451L1185.61 274.451Z" stroke="black" stroke-width="5"/>
<path d="M797.109 114.951L796.609 4.95105L178.609 463.451C150.109 485.118 91.5086 529.851 85.1086 535.451C77.1086 542.451 52.6086 571.451 32.6086 608.451C16.6086 638.051 12.142 674.784 11.9087 689.451C4.80867 1014.62 -5.13134 1689.38 11.9087 1787.08C33.2087 1909.2 109.109 1979.95 218.109 2017.45C327.109 2054.95 363.609 2047.45 375.609 2049.45C385.209 2051.05 426.609 2048.78 446.109 2047.45C463.109 2048.95 493.998 2039.91 497.609 2039.45C517.109 2036.95 533.609 2030.95 545.609 2028.95C555.209 2027.35 590.275 2012.28 606.609 2004.95L649.609 1979.45L1409.61 1467.95V240.451C1130.78 434.118 572.509 821.551 570.109 821.951C567.109 822.451 561.109 828.951 536.109 843.451C511.109 857.951 492.109 863.951 490.609 865.451C489.109 866.951 467.109 873.951 463.609 875.451C460.109 876.951 445.609 879.951 438.609 881.451C431.609 882.951 415.109 886.951 393.609 886.951H355.609C352.109 886.951 322.109 883.451 313.609 881.451C305.109 879.451 275.109 872.951 258.109 866.951C241.109 860.951 229.609 854.451 201.609 840.451C188.109 831.451 181.609 826.451 173.609 820.951C166.413 816.004 136.609 788.451 129.109 777.951C123.109 769.551 112.275 750.118 107.609 741.451C101.109 728.784 91.8087 693.751 106.609 654.951C121.409 616.151 157.775 586.784 174.109 576.951L797.109 114.951Z" fill="#D9D9D9"/>
<path d="M797.109 114.951L796.609 4.95105L178.609 463.451C150.109 485.118 91.5086 529.851 85.1086 535.451C77.1086 542.451 52.6086 571.451 32.6086 608.451C16.6086 638.051 12.142 674.784 11.9087 689.451C4.80867 1014.62 -5.13134 1689.38 11.9087 1787.08C33.2087 1909.2 109.109 1979.95 218.109 2017.45C327.109 2054.95 363.609 2047.45 375.609 2049.45C385.209 2051.05 426.609 2048.78 446.109 2047.45C463.109 2048.95 493.998 2039.91 497.609 2039.45C517.109 2036.95 533.609 2030.95 545.609 2028.95C555.209 2027.35 590.275 2012.28 606.609 2004.95L649.609 1979.45L1409.61 1467.95V240.451C1130.78 434.118 572.509 821.551 570.109 821.951C567.109 822.451 561.109 828.951 536.109 843.451C511.109 857.951 492.109 863.951 490.609 865.451C489.109 866.951 467.109 873.951 463.609 875.451C460.109 876.951 445.609 879.951 438.609 881.451C431.609 882.951 415.109 886.951 393.609 886.951H355.609C352.109 886.951 322.109 883.451 313.609 881.451C305.109 879.451 275.109 872.951 258.109 866.951C241.109 860.951 229.609 854.451 201.609 840.451C188.109 831.451 181.609 826.451 173.609 820.951C166.413 816.004 136.609 788.451 129.109 777.951C123.109 769.551 112.275 750.118 107.609 741.451C101.109 728.784 91.8087 693.751 106.609 654.951C121.409 616.151 157.775 586.784 174.109 576.951L797.109 114.951Z" fill="black"/>
<path d="M797.109 114.951L796.609 4.95105L178.609 463.451C150.109 485.118 91.5086 529.851 85.1086 535.451C77.1086 542.451 52.6086 571.451 32.6086 608.451C16.6086 638.051 12.142 674.784 11.9087 689.451C4.80867 1014.62 -5.13134 1689.38 11.9087 1787.08C33.2087 1909.2 109.109 1979.95 218.109 2017.45C327.109 2054.95 363.609 2047.45 375.609 2049.45C385.209 2051.05 426.609 2048.78 446.109 2047.45C463.109 2048.95 493.998 2039.91 497.609 2039.45C517.109 2036.95 533.609 2030.95 545.609 2028.95C555.209 2027.35 590.275 2012.28 606.609 2004.95L649.609 1979.45L1409.61 1467.95V240.451C1130.78 434.118 572.509 821.551 570.109 821.951C567.109 822.451 561.109 828.951 536.109 843.451C511.109 857.951 492.109 863.951 490.609 865.451C489.109 866.951 467.109 873.951 463.609 875.451C460.109 876.951 445.609 879.951 438.609 881.451C431.609 882.951 415.109 886.951 393.609 886.951H355.609C352.109 886.951 322.109 883.451 313.609 881.451C305.109 879.451 275.109 872.951 258.109 866.951C241.109 860.951 229.609 854.451 201.609 840.451C188.109 831.451 181.609 826.451 173.609 820.951C166.413 816.004 136.609 788.451 129.109 777.951C123.109 769.551 112.275 750.118 107.609 741.451C101.109 728.784 91.8087 693.751 106.609 654.951C121.409 616.151 157.775 586.784 174.109 576.951L797.109 114.951Z" stroke="black" stroke-width="5"/>
</svg>
